#!OML:ASF I:\Actors\actors\Patient Classification 1\Patient 1\Session 1\Subject1.ASF
:FULLY-SPECIFIED
:DEGREES
1701
root 0.718005 17.4319 9.84318 9.48426 0.483095 -9.48218
lowerback -0.858256 1.3992 3.33918
upperback -9.95574 2.25413 2.39762
thorax -10.0483 0.953289 0.517277
lowerneck -11.1379 -4.93748 -0.400774
upperneck 29.6602 -14.386 22.2315
head 14.0425 -3.82625 6.83057
rclavicle -1.78906e-014 3.89618e-014
rhumerus -33.4381 45.6639 -111.799
rradius 100.987
rwrist 30.661
rhand -8.53582 -33.8092
rfingers 7.12502
rthumb 17.3932 -783.051
lclavicle -1.78906e-014 3.89618e-014
lhumerus -54.4206 -12.7193 102.664
lradius 117.05
lwrist 77.8253
lhand -24.3772 9.31798
lfingers 7.12502
lthumb 2.11304 39.2873
rfemur -0.249651 24.2438 27.1137
rtibia 1.22922
rfoot -15.0416 -29.0037
rtoes 3.45997
lfemur 9.90234 -48.3905 -14.194
ltibia -4.84465
lfoot -26.1925 54.1718
ltoes 8.56847
1702
root 0.728523 17.4297 9.8506 9.46961 0.301093 -9.58982
lowerback -0.946463 1.48156 3.43149
upperback -9.97155 2.36139 2.35358
thorax -10.0071 0.996197 0.413138
lowerneck -11.3242 -4.97888 -1.31218
upperneck 30.0981 -14.4214 22.4067
head 14.3793 -3.89304 7.12307
rclavicle 6.65929e-015 2.18663e-014
rhumerus -33.4472 45.7367 -111.871
rradius 100.928
rwrist 30.9148
rhand -8.61729 -34.0053
rfingers 7.12502
rthumb 17.3148 -783.254
lclavicle 6.65929e-015 2.18663e-014
lhumerus -54.4186 -12.6457 102.642
lradius 117.089
lwrist 77.8157
lhand -24.4629 9.60248
lfingers 7.12502
lthumb 2.03026 39.5726
rfemur -0.277426 24.1533 27.1616
rtibia 1.28896
rfoot -14.9798 -28.7477
rtoes 3.4735
lfemur 10.1463 -48.4627 -14.3218
ltibia -4.8727
lfoot -26.6398 54.343
ltoes 8.95292
1703
root 0.738872 17.4284 9.85735 9.47666 0.110857 -9.67816
lowerback -1.041 1.55969 3.53993
upperback -10.0039 2.46493 2.32297
thorax -9.98063 1.03637 0.315124
lowerneck -10.9902 -5.03462 -0.346854
upperneck 30.1533 -14.05 20.5087
head 13.9324 -3.83827 6.1452
rclavicle -3.08116e-015 1.11319e-014
rhumerus -33.5324 45.7934 -112.006
rradius 100.863
rwrist 31.1552
rhand -8.78536 -33.9971
rfingers 7.12502
rthumb 17.153 -783.26
lclavicle -3.08116e-015 1.11319e-014
lhumerus -54.4733 -12.5563 102.624
lradius 117.183
lwrist 77.8669
lhand -24.4423 9.93493
lfingers 7.12502
lthumb 2.05018 39.9048
rfemur -0.337374 24.1545 27.1811
rtibia 1.38108
rfoot -15.0104 -28.5322
rtoes 3.71384
lfemur 10.4053 -48.6215 -14.4999
ltibia -4.88881
lfoot -27.2457 54.5841
ltoes 9.44306
1704
root 0.74943 17.4273 9.86281 9.47731 -0.0878019 -9.69069
lowerback -1.08225 1.64642 3.62953
upperback -10.0455 2.58124 2.27416
thorax -9.99556 1.08272 0.206001
lowerneck -10.7564 -5.01891 -0.0783146
upperneck 30.2038 -13.5897 19.1206
head 13.6316 -3.77245 5.56721
rclavicle -5.46658e-015 -1.59028e-015
rhumerus -33.683 45.8831 -112.166
rradius 100.779
rwrist 31.4834
rhand -9.0681 -34.0486
rfingers 7.12502
rthumb 16.8809 -783.335
lclavicle -5.46658e-015 -1.59028e-015
lhumerus -54.546 -12.4824 102.615
lradius 117.265
lwrist 77.9378
lhand -24.1569 10.3917
lfingers 7.12502
lthumb 2.32586 40.3588
rfemur -0.402598 24.1244 27.1167
rtibia 1.49245
rfoot -15.0135 -28.3381
rtoes 3.52679
lfemur 10.6073 -48.6604 -14.7151
ltibia -4.90242
lfoot -27.6719 54.748
ltoes 9.84224
1705
root 0.761405 17.4267 9.8677 9.49177 -0.302446 -9.65337
lowerback -1.10066 1.73911 3.7352
upperback -10.085 2.7061 2.20807
thorax -10.0195 1.13068 0.0683915
lowerneck -10.7716 -4.96945 -0.301819
upperneck 30.3759 -13.1625 18.1601
head 13.5439 -3.71011 5.27418
rclavicle -2.36554e-014 -1.63003e-014
rhumerus -33.7493 45.871 -112.241
rradius 100.719
rwrist 31.4371
rhand -9.173 -33.6825
rfingers 7.12502
rthumb 16.7799 -782.977
lclavicle -2.36554e-014 -1.63003e-014
lhumerus -54.5599 -12.3956 102.625
lradius 117.185
lwrist 77.6661
lhand -23.7838 10.5454
lfingers 7.12502
lthumb 2.6862 40.5082
rfemur -0.486445 24.1021 26.9918
rtibia 1.61393
rfoot -14.9849 -28.1618
rtoes 3.16062
lfemur 10.6648 -48.4337 -14.8486
ltibia -4.92877
lfoot -27.6462 54.7262
ltoes 9.98016
1706
root 0.77405 17.4266 9.87263 9.49282 -0.515176 -9.63969
lowerback -1.07971 1.81199 3.89333
upperback -10.1122 2.81085 2.17357
thorax -10.0529 1.16558 -0.0642801
lowerneck -10.8257 -5.01972 -0.787363
upperneck 30.4252 -12.8182 17.2448
head 13.4494 -3.71882 5.02804
rclavicle 3.77691e-015 6.36111e-015
rhumerus -33.8525 46.0034 -112.37
rradius 100.706
rwrist 31.3408
rhand -9.24641 -33.4433
rfingers 7.12502
rthumb 16.7092 -782.744
lclavicle 3.77691e-015 6.36111e-015
lhumerus -54.5087 -12.2479 102.655
lradius 116.984
lwrist 77.087
lhand -24.2265 10.275
lfingers 7.12502
lthumb 2.25861 40.2428
rfemur -0.511455 24.1029 26.9102
rtibia 1.67374
rfoot -14.9066 -28.007
rtoes 3.03057
lfemur 10.6716 -48.0555 -14.9038
ltibia -4.93723
lfoot -27.3955 54.5442
ltoes 9.88078
1707
root 0.786201 17.4272 9.87703 9.46999 -0.731795 -9.52649
lowerback -1.01983 1.86824 3.95389
upperback -10.1362 2.89127 2.14122
thorax -10.1096 1.19651 -0.140236
lowerneck -11.7315 -5.26637 -1.09209
upperneck 31.5895 -12.8528 15.6271
head 14.0167 -3.84713 4.44981
rclavicle -6.06293e-015 2.98177e-014
rhumerus -33.9565 46.2174 -112.49
rradius 100.689
rwrist 31.32
rhand -9.31809 -33.3161
rfingers 7.12502
rthumb 16.6402 -782.623
lclavicle -6.06293e-015 2.98177e-014
lhumerus -54.4519 -11.9981 102.67
lradius 116.933
lwrist 76.7558
lhand -26.4682 10.2249
lfingers 7.12502
lthumb 0.0935838 40.2046
rfemur -0.475966 24.1669 26.7336
rtibia 1.67026
rfoot -14.797 -27.9499
rtoes 3.03522
lfemur 10.8045 -47.9162 -15.2158
ltibia -4.89964
lfoot -27.4105 54.5317
ltoes 9.83922
1708
root 0.797726 17.4293 9.88023 9.46441 -0.939722 -9.3574
lowerback -0.910788 1.94276 4.0713
upperback -10.1995 2.99741 2.02592
thorax -10.2325 1.22884 -0.340202
lowerneck -12.3414 -5.19564 -1.89748
upperneck 32.2261 -12.589 15.3505
head 14.4317 -3.80055 4.54885
rclavicle -2.88238e-015 -1.19271e-015
rhumerus -34.0695 46.2125 -112.672
rradius 100.646
rwrist 31.3787
rhand -9.3184 -33.2345
rfingers 7.12502
rthumb 16.6399 -782.541
lclavicle -2.88238e-015 -1.19271e-015
lhumerus -54.4754 -11.7719 102.61
lradius 117.021
lwrist 76.715
lhand -26.0719 9.97619
lfingers 7.12502
lthumb 0.47631 39.9554
rfemur -0.462593 24.3205 26.4923
rtibia 1.65985
rfoot -14.6829 -27.9852
rtoes 2.81221
lfemur 10.9401 -47.8785 -15.5986
ltibia -4.86862
lfoot -27.6226 54.6013
ltoes 10.0202
1709
root 0.808689 17.4319 9.88265 9.4861 -1.15003 -9.26068
lowerback -0.768331 2.0043 4.35555
upperback -10.2847 3.0978 1.91288
thorax -10.3937 1.24205 -0.631547
lowerneck -12.6503 -5.12186 -2.74736
upperneck 32.5368 -12.2378 15.1452
head 14.628 -3.75201 4.68859
rclavicle 1.5207e-014 -6.75868e-015
rhumerus -34.2117 46.2198 -112.924
rradius 100.688
rwrist 31.1573
rhand -9.22388 -33.1968
rfingers 7.12502
rthumb 16.7309 -782.496
lclavicle 1.5207e-014 -6.75868e-015
lhumerus -54.5422 -11.4996 102.482
lradius 117.164
lwrist 76.8918
lhand -26.0237 9.69765
lfingers 7.12502
lthumb 0.522827 39.6768
rfemur -0.505939 24.42 26.3138
rtibia 1.68076
rfoot -14.5123 -27.9558
rtoes 2.32099
lfemur 10.9766 -47.703 -15.783
ltibia -4.88064
lfoot -27.8661 54.5442
ltoes 10.4052
1710
root 0.819667 17.4344 9.88547 9.52124 -1.3695 -9.2056
lowerback -0.70567 2.02171 4.60899
upperback -10.3368 3.14095 1.92258
thorax -10.4802 1.23808 -0.767392
lowerneck -12.7292 -5.00993 -2.96787
upperneck 32.642 -11.594 13.9787
head 14.4952 -3.63927 4.3398
rclavicle 6.06293e-015 3.81667e-014
rhumerus -34.3203 46.495 -113.095
rradius 100.712
rwrist 30.8697
rhand -9.16229 -33.1425
rfingers 7.12502
rthumb 16.7902 -782.437
lclavicle 6.06293e-015 3.81667e-014
lhumerus -54.5723 -11.0417 102.402
lradius 117.312
lwrist 77.0588
lhand -23.3222 13.5814
lfingers 7.12502
lthumb 3.13195 43.5382
rfemur -0.565392 24.4917 26.1832
rtibia 1.70772
rfoot -14.2932 -27.9125
rtoes 1.58922
lfemur 10.9967 -47.5021 -15.8989
ltibia -4.92703
lfoot -28.0645 54.5198
ltoes 10.6739
1711
root 0.830723 17.4373 9.8871 9.58733 -1.50884 -9.13906
lowerback -0.70091 1.9957 4.80328
upperback -10.399 3.12518 1.99973
thorax -10.5529 1.21447 -0.79172
lowerneck -12.113 -4.6004 -2.07461
upperneck 32.1006 -10.3035 11.762
head 13.7012 -3.2942 3.44863
rclavicle 9.64106e-015 -8.34896e-015
rhumerus -34.4244 46.8193 -113.218
rradius 100.621
rwrist 30.7859
rhand -9.1325 -32.9645
rfingers 7.12502
rthumb 16.8189 -782.256
lclavicle 9.64106e-015 -8.34896e-015
lhumerus -54.6488 -10.5107 102.421
lradius 117.329
lwrist 76.8361
lhand -26.2842 10.5296
lfingers 7.12502
lthumb 0.271233 40.5092
rfemur -0.644165 24.6199 26.0423
rtibia 1.7172
rfoot -14.2197 -27.9599
rtoes 1.04375
lfemur 10.8887 -47.3069 -15.9281
ltibia -4.94308
lfoot -28.0977 54.4557
ltoes 10.7516
